<svg version="1.1" id="Layer_1" xmlns="http://www.w3.org/2000/svg" x="0" y="0" viewBox="0 0 151.6 151.6" xml:space="preserve"><style>.st0{fill:#3FE19B}</style><path class="st0" d="M37.4 97.1c-3.6 3-3.3 8-.9 10.9l3.7 4.5h.1l11.9-9.8v-.1l-3.7-4.5c-2.5-2.9-7.5-4-11.1-1zM111.2 39.4l-11.9 9.9 3.8 4.5c2.4 2.9 7.4 4.1 11 1s3.3-8 .9-10.9l-3.8-4.5z"/><path class="st0" d="M75.8 0C33.9 0 0 33.9 0 75.8s33.9 75.8 75.8 75.8 75.8-33.9 75.8-75.8S117.7 0 75.8 0zm45.6 65.1c-2.9 2.4-6.1 3.8-9.6 4.3-.9.1-1.5 1-1.3 1.8 1 4.2 2.1 10.7-5.5 17-10.7 8.8-21.5 7.4-30.7-4.9l-3.1-3.7-2.9-3.5c-2.6-3.2-7.2-9.2-14.1-2.9-5.3 4.8-.4 11.2 1.6 13.4l12.6 15.3c.8 1 .6 2.4-.3 3.1l-27.4 22.7c-.9.7-2.1.6-2.8-.3L27.6 115c-7.4-9-6-22.2 3.5-29 2.6-1.9 5.5-3 8.5-3.5.9-.1 1.5-1 1.3-1.9-1-4.2-2.1-10.7 5.5-17 10.7-8.8 21.5-7.4 30.7 4.9l3 3.7 3 3.6c2.6 3.2 7.2 9.2 14.1 2.9 5.3-4.8.4-11.2-1.6-13.4L82.9 50c-.8-.9-.6-2.3.3-3l27.4-22.7c.9-.7 2.2-.6 3 .3L123.8 37c7 8.4 6 21.2-2.4 28.1z"/></svg>