<svg version="1.1" id="Layer_1" xmlns="http://www.w3.org/2000/svg" x="0" y="0" viewBox="0 0 1024 768" xml:space="preserve"><style>.st0{fill:#00feec}</style><path class="st0" d="M473.29 405.64c-3.65 3.02-3.29 8-.89 10.91l3.73 4.51c.02.02.04.02.06.01l11.85-9.81c.02-.02.02-.04.01-.06l-3.73-4.51c-2.41-2.92-7.38-4.07-11.03-1.05zM547.1 347.96l-11.92 9.87 3.76 4.54c2.41 2.91 7.38 4.06 11.03 1.04s3.29-8 .89-10.91l-3.76-4.54z"/><path class="st0" d="M511.72 308.53c-41.86 0-75.79 33.93-75.79 75.79 0 41.86 33.93 75.79 75.79 75.79s75.79-33.93 75.79-75.79c.01-41.86-33.93-75.79-75.79-75.79zm45.58 65.14a19.179 19.179 0 01-9.56 4.26c-.88.13-1.47.97-1.27 1.83.97 4.22 2.09 10.68-5.53 16.99-10.68 8.84-21.53 7.36-30.68-4.86l-3.08-3.72-2.93-3.54c-2.64-3.2-7.2-9.19-14.12-2.91-5.26 4.77-.36 11.19 1.59 13.41l12.65 15.27c.79.95.65 2.35-.3 3.14l-27.44 22.72c-.85.71-2.11.59-2.82-.27l-10.29-12.42c-7.43-8.98-5.99-22.18 3.46-29 2.59-1.87 5.47-3.01 8.48-3.45.9-.13 1.51-1 1.31-1.89-.97-4.22-2.06-10.66 5.54-16.95 10.68-8.84 21.53-7.36 30.68 4.86l3.05 3.68 2.96 3.58c2.64 3.2 7.2 9.19 14.12 2.91 5.26-4.77.36-11.19-1.59-13.41l-12.7-15.34c-.75-.91-.63-2.26.28-3.02l27.42-22.71c.9-.74 2.22-.62 2.96.28l10.26 12.39c6.98 8.43 5.97 21.22-2.45 28.17z"/></svg>