<?xml version="1.0" encoding="utf-8"?>
<!-- Generator: Adobe Illustrator 24.1.0, SVG Export Plug-In . SVG Version: 6.00 Build 0)  -->
<svg version="1.1" id="Ebene_1" xmlns="http://www.w3.org/2000/svg" xmlns:xlink="http://www.w3.org/1999/xlink" x="0px" y="0px"
	 viewBox="0 0 1000 1000" style="enable-background:new 0 0 1000 1000;" xml:space="preserve">
<style type="text/css">
	.st0{fill:#F2F4F3;}
	.st1{fill:#BAE2D0;fill-opacity:0;}
	.st2{fill:#BAE2D0;}
</style>
<rect class="st0" width="1000" height="1000"/>
<g>
	<g>
		<rect x="364.9" y="415.4" class="st1" width="254.2" height="254.2"/>
		<path class="st2" d="M555.6,447.2H428.5c-17.6,0-31.8,14.2-31.8,31.8v127.1c0,17.6,14.2,31.8,31.8,31.8h127.1
			c17.6,0,31.8-14.2,31.8-31.8V479C587.4,461.4,573.1,447.2,555.6,447.2z M428.5,468.4h127.1c5.9,0,10.6,4.7,10.6,10.6v88.6
			l-33.9-28.9c-10.8-8.9-26.5-8.9-37.3,0l-77.1,64.3V479C417.9,473.1,422.6,468.4,428.5,468.4z M555.6,616.7H434.4l74.2-61.9
			c2.9-2.2,6.9-2.2,9.9,0l47.8,40.7v10.6C566.2,612,561.4,616.7,555.6,616.7z"/>
		<circle class="st2" cx="449.6" cy="505.5" r="15.9"/>
	</g>
</g>
</svg>
