<svg id="Ebene_1" data-name="Ebene 1" xmlns="http://www.w3.org/2000/svg" viewBox="0 0 401.13 266.02"><defs><style>.cls-1{fill:#fff}</style></defs><path class="cls-1" d="M113.27 24.87c-8.53 0-43.1 8.46-49.52 24.4-4.83 12 34.39 107.93 70.25 107.93h.17s14.12-1.5 15.79-38.57c1.62-36.36-7.54-93.76-36.69-93.76zM140 118.18c-.93 20.71-5.9 27.21-7.66 28.88-5.24-.82-11.78-5.29-18.65-12.81-10-10.9-20.6-28.22-29.18-47.52-8.41-18.9-11.07-31-11.12-34.41 5.24-10.25 34.27-17.45 39.93-17.45 2.15 0 5.45.47 9.36 4.57C135.58 53 141.22 90.12 140 118.18zM302.73 79a5 5 0 109.72-2.33c-3.65-15.28-12.57-27.21-25.8-34.5a5 5 0 10-4.82 8.76c10.84 5.98 17.88 15.42 20.9 28.07zM304.37 98.4a111.65 111.65 0 01-1.71 15 5 5 0 009.85 1.76 121.7 121.7 0 001.85-16.39 5 5 0 10-10-.41z"/><path class="cls-1" d="M398.87 122.77a10 10 0 00-12.16-6.43c-10.11 2.82-20.21 10.24-22.84 20.56-11.79-5.63-23.84-24.83-30.14-36.12.08-23.49-4.61-41.38-14.21-55.45-13.64-20-37.4-32.39-74.79-39.06A387.91 387.91 0 00176.86 0C112.12 0 71.08 18 48.05 33 17.51 53 0 80.46 0 108.39c0 15.61 2.63 54.44 12.57 89.94 5.5 19.63 12.43 35.24 20.6 46.4C43.51 258.86 55.89 266 70 266c21.31 0 31.44-12 36.19-22a55 55 0 005-21.28 5 5 0 00-2.3-4.2l-15.25-9.82a5 5 0 00-7.5 2.79c-1.17 4-4.73 16-7.93 16-2.42 0-4.5-2.54-5.72-4.65-4.17-7.19-6.54-22.64-2.69-40.81a103.8 103.8 0 0027.56 4.17 62.5 62.5 0 0011.68-1c8.39 49.85 8.48 50.5 13.41 75.17a5 5 0 004.9 4h52.75a5 5 0 005-4.91l1-49.8c9.07.52 18.07.78 26.82.78 10.43 0 18.35-.37 23.2-.69v49.37a5 5 0 005 5h48.49a5 5 0 004.54-2.91c12.42-26.91 27.91-74.55 35.24-116.46 14 13.86 31.51 24 50 17 6.23-2.36 13.43-4.56 18.42-13.29 4.04-7.1 4.41-15.76 1.06-25.69zm-364.59 54c-4.36 0-6-.82-3.09-1.81 8.93-3 40.07-27.53 40.07-27.53 8.07 7.44 6.06 13.77 6.06 13.77-14.44 12.22-34.22 15.59-43.04 15.59zM317.63 153a530.62 530.62 0 01-31.34 101.23h-40.23v-49.82a5 5 0 00-5.52-5c-.1 0-10.46 1.07-27.69 1.07-10.2 0-20.75-.36-31.38-1.08a5 5 0 00-5.33 4.89l-1 50.12h-43.71c-4-19.82-4.54-23.23-11.89-66.92l-1.54-9.25a5 5 0 00-6.45-3.93 47 47 0 01-14.19 2 89.13 89.13 0 01-20.1-2.57c4.56-3 8.39-5.58 9.63-9.47 1.81-5.72.59-15.47-8.82-24.14a10 10 0 00-13-.51C50.7 150.92 32.39 164 28 165.49c-7.1 2.37-8.85 8-8.19 12.06.28 1.71 1.78 7.42 9.3 8.83 5.93 1.11 14.93-.11 22.64-2 2.84-.69 5.52-1.45 7.79-2.23-3.31 17.69-1.78 35.37 4.25 45.74 4 6.9 9.47 9.64 14.36 9.64 8.11 0 12.29-7.44 15.53-16.89l7.31 4.7C99.39 243.27 89 256 70 256c-26.33 0-40.66-35-47.76-60.39C12.55 161.17 10 123.49 10 108.38c0-24.48 15.87-48.9 43.52-67C84.47 21.14 128.27 10 176.86 10A377.5 377.5 0 01243 16.11c34.57 6.17 56.27 17.24 68.29 34.85 14.24 20.93 16.21 52.38 6.34 102.04zm59.09-1c-1.47 1.38-6.45 2.28-9.29 2.28-7.56 0-20-3.69-36.15-21.82q1-7.11 1.58-13.7c9.27 14 25 33.49 41.2 28.93C368.68 131.75 389.4 126 389.4 126c6.97 20.64-9.29 25.19-12.68 25.9z"/><path class="cls-1" d="M45.17 127.2a21.74 21.74 0 10-21.74-21.74 21.77 21.77 0 0021.74 21.74zm0-33.48a11.74 11.74 0 11-11.74 11.74 11.74 11.74 0 0111.74-11.74z"/></svg>